<svg xmlns="http://www.w3.org/2000/svg" viewBox="-70 -70 140 140">
  <!-- Main circle -->
  <circle cx="0" cy="0" r="60" fill="none" stroke="#2b6cb0" stroke-width="2"/>
  
  <!-- Ornate top -->
  <path d="M-5,-55 l5,-8 l5,8 h-10" fill="#2b6cb0"/>
  <circle cx="0" cy="-53" r="2" fill="#2b6cb0"/>
  
  <!-- Center pole -->
  <path d="M0,-53 v83" stroke="#2b6cb0" stroke-width="3"/>
  
  <!-- Balance beam -->
  <path d="M-40,-25 h80" stroke="#2b6cb0" stroke-width="3"/>
  
  <!-- Chains -->
  <path d="M-40,-25 l-5,10 l-5,10 l-5,10" stroke="#2b6cb0" stroke-width="1.5" fill="none"/>
  <path d="M-35,-25 l-4,8 l-4,8 l-4,8" stroke="#2b6cb0" stroke-width="1.5" fill="none"/>
  <path d="M40,-25 l5,10 l5,10 l5,10" stroke="#2b6cb0" stroke-width="1.5" fill="none"/>
  <path d="M35,-25 l4,8 l4,8 l4,8" stroke="#2b6cb0" stroke-width="1.5" fill="none"/>
  
  <!-- Scale bowls -->
  <path d="M-65,5 q15,15 30,0 q15,-15 30,0" stroke="#2b6cb0" stroke-width="2" fill="none"/>
  <path d="M5,5 q15,15 30,0 q15,-15 30,0" stroke="#2b6cb0" stroke-width="2" fill="none"/>
  
  <!-- Letter circles -->
  <circle cx="-50" cy="0" r="12" fill="#4299e1"/>
  <circle cx="50" cy="0" r="12" fill="#4299e1"/>
  
  <!-- Letters -->
  <text x="-54.5" y="4" font-family="Arial, sans-serif" font-size="14" fill="#ffffff" font-weight="bold">S</text>
  <text x="46" y="4" font-family="Arial, sans-serif" font-size="14" fill="#ffffff" font-weight="bold">L</text>
  
  <!-- Base -->
  <path d="M-10,30 h20 M-12,35 h24" stroke="#2b6cb0" stroke-width="2"/>
</svg>
